<svg xmlns:xlink="http://www.w3.org/1999/xlink" width="137" height="50" viewBox="0 0 128 50" fill="none" xmlns="http://www.w3.org/2000/svg" class="navbar__logo"><path d="M63.4703 43.7956H60.7406V45.4796H63.3907V46.8184H60.7406V49.5513H59.4023V42.4568H63.4703V43.7956Z" fill="#2A323D"></path><path d="M68.2133 42.4568H66.875V49.5375H68.2133V42.4568Z" fill="#2A323D"></path><path d="M75.8592 42.4568H77.1975V49.5513H76.1772L73.2621 45.2173V49.5513H71.9238V42.4568H72.9441L75.8592 46.7908V42.4568Z" fill="#2A323D"></path><path d="M85.281 49.5514L84.8703 48.2816H82.1539L81.7431 49.5514H80.2988L82.6839 42.4707H84.3535L86.7518 49.5514H85.281ZM82.5779 46.9704H84.4462L83.5187 44.0718L82.5779 46.9704Z" fill="#2A323D"></path><path d="M93.7616 42.4568H95.1131V49.5513H94.0928L91.1645 45.2173V49.5513H89.8262V42.4568H90.8465L93.7616 46.7908V42.4568Z" fill="#2A323D"></path><path d="M102.03 49.6894C101.009 49.6894 100.161 49.3306 99.4856 48.6266C98.823 47.9227 98.4785 47.0393 98.4785 46.0041C98.4785 44.9551 98.8098 44.0856 99.4856 43.3816C100.148 42.6777 100.996 42.3188 102.03 42.3188C102.639 42.3188 103.209 42.4707 103.739 42.7743C104.256 43.078 104.667 43.4783 104.958 43.989L103.805 44.6929C103.633 44.3754 103.394 44.127 103.09 43.9476C102.785 43.7681 102.427 43.6853 102.043 43.6853C101.38 43.6853 100.85 43.9062 100.44 44.334C100.029 44.7619 99.8301 45.3278 99.8301 46.0179C99.8301 46.6943 100.029 47.2602 100.44 47.6881C100.85 48.116 101.38 48.3368 102.043 48.3368C102.427 48.3368 102.785 48.254 103.103 48.0745C103.421 47.8951 103.659 47.6467 103.818 47.343L104.971 48.0469C104.68 48.5576 104.269 48.9717 103.752 49.2616C103.235 49.5376 102.652 49.6894 102.03 49.6894Z" fill="#2A323D"></path><path d="M109.555 42.4568H108.217V49.5375H109.555V42.4568Z" fill="#2A323D"></path><path d="M117.638 49.5514L117.228 48.2816H114.511L114.101 49.5514H112.656L115.041 42.4707H116.711L119.109 49.5514H117.638ZM114.949 46.9704H116.817L115.889 44.0718L114.949 46.9704Z" fill="#2A323D"></path><path d="M123.536 48.2125H126.133V49.5513H122.197V42.4568H123.536V48.2125Z" fill="#2A323D"></path><path fill-rule="evenodd" clip-rule="evenodd" d="M118.353 9.34438C120.99 9.34438 123.176 10.2692 124.899 12.1049C126.622 13.9545 127.483 16.4941 127.483 19.7378V35.1553H121.255V20.5521C121.255 18.882 120.818 17.5983 119.957 16.715C119.082 15.8316 117.929 15.3899 116.485 15.3899C114.882 15.3899 113.596 15.9144 112.629 16.9496C111.662 17.9848 111.185 19.5445 111.185 21.6287V35.1967H104.957V0H111.185V12.864C112.669 10.5176 115.067 9.34438 118.353 9.34438Z" fill="#5B3EE4"></path><path fill-rule="evenodd" clip-rule="evenodd" d="M92.1181 35.8731C88.4875 35.8731 85.4531 34.6033 83.015 32.0498C80.5901 29.5101 79.3711 26.3631 79.3711 22.6088C79.3711 18.8545 80.5901 15.7075 83.015 13.1678C85.4398 10.6281 88.4742 9.34448 92.1181 9.34448C94.4634 9.34448 96.61 9.92419 98.5313 11.0974C100.466 12.2706 101.923 13.8441 102.917 15.8179L97.5641 19.0891C97.087 18.0539 96.345 17.2258 95.3645 16.6323C94.3839 16.025 93.2841 15.7213 92.0651 15.7213C90.1968 15.7213 88.6597 16.37 87.4274 17.6537C86.2084 18.9373 85.5988 20.5936 85.5988 22.595C85.5988 24.5688 86.2084 26.2113 87.4274 27.4949C88.6465 28.7786 90.1968 29.4273 92.0651 29.4273C93.3239 29.4273 94.4369 29.1375 95.4175 28.5439C96.398 27.9642 97.1268 27.1499 97.6171 26.1009L103.023 29.3169C101.963 31.2907 100.466 32.878 98.5313 34.065C96.61 35.2796 94.4767 35.8731 92.1181 35.8731Z" fill="#5B3EE4"></path><path fill-rule="evenodd" clip-rule="evenodd" d="M59.3495 27.702C60.6083 29.027 62.1984 29.6895 64.133 29.6895C66.0676 29.6895 67.6576 29.027 68.9297 27.702C70.2017 26.3769 70.8377 24.6792 70.8377 22.6088C70.8377 20.5384 70.2017 18.8269 68.9297 17.5156C67.6576 16.1906 66.0543 15.528 64.133 15.528C62.1984 15.528 60.6083 16.1906 59.3495 17.5156C58.0908 18.8407 57.468 20.5384 57.468 22.6088C57.468 24.6792 58.0908 26.3907 59.3495 27.702ZM70.8377 10.0484H77.0655V35.1692H70.8377V32.2016C68.9694 34.6447 66.3458 35.8731 62.9669 35.8731C59.7471 35.8731 56.991 34.5895 54.6854 32.036C52.3798 29.4687 51.2402 26.3355 51.2402 22.6226C51.2402 18.9097 52.393 15.7627 54.6854 13.2092C56.991 10.6419 59.7471 9.37207 62.9669 9.37207C66.3458 9.37207 68.9694 10.6005 70.8377 13.0436V10.0484Z" fill="#5B3EE4"></path><path fill-rule="evenodd" clip-rule="evenodd" d="M31.1925 20.2484H43.5023C43.1445 18.5369 42.4157 17.2671 41.3027 16.4251C40.1896 15.5832 38.9308 15.1691 37.513 15.1691C35.8435 15.1691 34.4522 15.6108 33.3656 16.4941C32.2658 17.3913 31.5503 18.6335 31.1925 20.2484ZM31.2853 25.2726C32.1201 28.4196 34.3859 29.9931 38.0961 29.9931C40.4812 29.9931 42.2832 29.1511 43.5023 27.481L48.5242 30.49C46.1391 34.0787 42.641 35.8592 38.0033 35.8592C34.0149 35.8592 30.8083 34.6032 28.3967 32.0911C25.9851 29.579 24.7793 26.4182 24.7793 22.5949C24.7793 18.813 25.9718 15.6522 28.3569 13.1263C30.742 10.6004 33.7896 9.33057 37.5263 9.33057C41.0642 9.33057 43.9793 10.6004 46.2849 13.1539C48.5905 15.6936 49.73 18.8544 49.73 22.5949C49.73 23.4368 49.6505 24.3202 49.4915 25.2588H31.2853V25.2726Z" fill="#5B3EE4"></path><path fill-rule="evenodd" clip-rule="evenodd" d="M16.7487 15.3485C15.8476 16.3699 14.7743 16.8806 13.5155 16.8806H6.66501V6.48723H13.5155C14.7743 6.48723 15.8476 6.98413 16.7487 7.99172C17.6497 8.99931 18.1002 10.2139 18.1002 11.6632C18.1002 13.0987 17.6497 14.3271 16.7487 15.3485ZM53.7706 38.8406L48.6029 35.735C47.1056 37.0462 43.5147 39.5031 37.7242 39.5031C28.1839 39.5031 23.9702 32.0497 23.7979 31.7322L18.2592 21.9048C20.2203 20.9662 21.7971 19.5721 22.9896 17.7088C24.1822 15.8454 24.7785 13.8302 24.7785 11.6494C24.7785 8.4334 23.6787 5.68668 21.4923 3.40925C19.2928 1.14562 16.6294 0 13.5155 0H0V35.1691H6.66501V22.9676H11.7135L18.5375 35.1691C19.5578 36.9082 25.4542 45.9627 37.7242 45.9627C48.4439 45.9627 53.8899 39.4203 54.1284 39.1442L53.7706 38.8406Z" fill="#5B3EE4"></path></svg>